<svg version="1.1" id="Layer_1" xmlns="http://www.w3.org/2000/svg" xmlns:xlink="http://www.w3.org/1999/xlink" x="0px" y="0px"
	 width="100%" viewBox="265 286 480 480" xml:space="preserve">
<path fill="#FFFFFF" opacity="1.000000" stroke="none" 
	d="
M305.810913,596.048950 
	C291.693756,563.842590 285.759033,530.458801 288.033417,495.845947 
	C288.990936,481.273651 292.536316,466.952393 296.129944,452.733978 
	C301.370453,431.999695 310.430786,412.903900 321.617218,394.910828 
	C339.477875,366.182373 363.060913,343.062592 391.971619,325.277100 
	C410.604126,313.814636 430.545410,305.523804 451.600342,300.277649 
	C483.838501,292.244995 516.225586,291.701935 549.087952,298.235901 
	C595.724487,307.508545 634.780334,329.688385 666.813660,364.235413 
	C690.283386,389.546844 706.225281,419.260834 715.300720,452.729065 
	C721.146484,474.287048 724.259216,496.032166 723.209778,518.352173 
	C721.297791,559.017334 709.593994,596.418823 686.866211,630.421143 
	C675.285400,647.746826 661.939758,663.434570 645.871399,676.531494 
	C627.327209,691.646240 606.774841,703.631348 584.290344,712.115479 
	C575.081116,715.590393 565.662476,718.312073 555.988708,720.073425 
	C553.710938,720.488220 552.514221,721.418640 551.765442,723.580688 
	C541.078064,754.439819 509.468933,758.862549 487.532593,747.233398 
	C478.923279,742.669250 473.218658,735.324463 469.624756,726.463806 
	C468.281372,723.151733 466.251129,721.970276 463.037933,721.434204 
	C425.482483,715.168640 392.640594,699.066895 363.658722,674.465149 
	C338.261505,652.906189 319.586304,626.563416 305.810913,596.048950 
M426.582031,432.115845 
	C422.289368,445.495239 422.340088,458.917084 425.740234,472.503784 
	C429.929718,489.244507 431.841553,505.795624 419.386475,520.386963 
	C419.211823,520.591614 419.293579,521.015137 419.205688,521.759705 
	C425.797668,523.093811 432.620850,523.821472 438.992065,525.920715 
	C448.056915,528.907593 456.585388,529.228333 465.785187,526.099548 
	C484.102081,519.870117 496.291901,535.866882 497.098999,550.638855 
	C497.233154,553.094604 496.238312,554.916992 493.826355,555.612732 
	C491.279114,556.347595 489.653564,554.979675 488.717316,552.767029 
	C488.072205,551.242371 487.587219,549.635681 487.176971,548.028320 
	C484.132843,536.101196 477.369965,532.125061 465.678864,535.892883 
	C458.000946,538.367249 450.464813,539.146240 442.636536,536.698303 
	C438.515076,535.409485 434.243866,534.564087 430.003845,533.696716 
	C419.732147,531.595581 409.486511,529.093018 398.862579,531.165344 
	C391.862427,532.530701 387.933167,536.403992 387.093903,543.467957 
	C385.799438,554.363464 385.489136,565.332581 383.516388,576.203186 
	C381.836273,585.461304 385.908691,592.207642 393.280731,594.928589 
	C397.766937,596.584351 402.520111,596.454468 407.079590,595.274963 
	C414.890930,593.254272 422.778534,592.646118 430.820831,592.638733 
	C438.920166,592.631287 446.619446,594.956726 454.538177,595.953430 
	C470.595428,597.974548 485.627991,597.205078 496.210449,582.402466 
	C497.360535,580.793823 499.117859,579.243286 501.292938,580.934143 
	C503.202148,582.418335 504.564026,584.397156 503.642578,587.004578 
	C502.802704,589.381165 501.458588,591.500916 499.613007,593.255798 
	C494.969452,597.671204 489.649384,601.038757 483.678528,603.346313 
	C471.445312,608.073914 459.157776,606.130920 446.750000,603.951538 
	C436.631287,602.174255 426.375336,601.098999 415.973206,603.804932 
	C419.837952,613.536804 426.797516,619.457275 436.346558,622.441406 
	C444.987091,625.141724 453.050964,629.090271 460.941711,633.434265 
	C469.104340,637.928040 477.557709,641.057129 487.136993,639.975220 
	C491.014587,639.537292 494.946533,640.269836 498.347900,641.989197 
	C508.645264,647.194641 517.599854,644.334534 526.427307,638.352478 
	C538.996399,629.834717 548.858704,618.574036 558.658569,607.230530 
	C562.964355,602.246521 567.251343,597.219177 569.948120,591.117737 
	C568.284546,589.847107 566.745667,590.408264 565.313416,590.401733 
	C552.557678,590.343079 537.604370,576.941162 535.758911,564.237366 
	C534.250183,553.851624 540.260681,548.038025 548.340637,544.360718 
	C556.608093,540.598083 561.567444,535.045776 563.956787,526.307617 
	C566.103027,518.458435 575.649170,511.770142 585.608521,517.471863 
	C588.449829,519.098511 591.342041,521.400513 595.193909,521.329102 
	C595.452393,520.335510 595.751160,519.559814 595.847351,518.759888 
	C596.917725,509.856384 599.363159,501.123108 599.023132,492.039307 
	C598.922668,489.355072 599.100037,486.331299 602.334473,485.486389 
	C605.763550,484.590668 606.756836,487.530121 608.048889,489.871460 
	C610.058838,493.513428 611.941650,497.259369 614.301392,500.668396 
	C622.874939,513.054199 627.811584,526.581299 624.972290,541.629883 
	C620.532166,565.162903 616.050110,588.711853 604.547607,610.258972 
	C593.058167,631.781799 579.014404,651.191406 560.470398,667.160583 
	C553.974548,672.754517 547.273071,678.110596 539.676758,682.772278 
	C543.502441,687.167236 546.651611,691.181519 549.199707,695.729004 
	C551.756042,700.291138 551.707092,705.614075 553.858337,710.481628 
	C556.556458,709.972107 558.863708,709.680481 561.093262,709.093689 
	C593.111572,700.665039 621.563782,685.291992 645.949036,663.114929 
	C691.013367,622.131409 713.733032,570.864441 713.540527,509.831787 
	C713.466003,486.223450 709.703796,463.144196 701.726929,440.767578 
	C694.045776,419.220184 683.250061,399.460602 669.098755,381.558350 
	C651.597595,359.418396 629.983154,342.276886 605.206726,328.807892 
	C577.038086,313.494812 546.978516,305.028656 515.108032,303.524780 
	C480.049683,301.870514 446.644226,308.885132 414.953064,324.291809 
	C382.991608,339.829926 356.080841,361.354553 335.859070,390.629120 
	C304.385986,436.191895 292.648041,486.601562 300.284332,541.488647 
	C303.694305,565.998535 311.034302,589.298645 323.265594,610.776245 
	C341.784241,643.294128 367.152496,669.294373 399.786255,687.900635 
	C418.997803,698.854065 439.231079,707.250732 461.058685,711.472046 
	C464.522430,712.141846 466.380096,711.911255 466.955811,707.427002 
	C468.636139,694.338562 474.345093,683.334534 485.693970,675.820068 
	C486.636475,675.196045 487.793030,674.720459 488.194702,672.922241 
	C483.707489,668.101746 479.827393,662.480652 478.942230,655.457825 
	C478.367371,650.897034 475.945343,648.945129 471.548370,648.259277 
	C467.955994,647.698914 464.579193,646.137573 461.241547,644.563965 
	C453.722656,641.019226 446.996918,635.840088 438.840942,633.622192 
	C425.094299,629.883911 414.807709,621.718994 407.891632,609.328979 
	C406.243347,606.376038 404.081299,605.088440 400.650146,605.165771 
	C380.105804,605.628906 370.953644,588.155090 374.475281,571.288025 
	C375.950928,564.220337 376.654877,557.189575 376.770508,550.002197 
	C377.112396,528.747986 386.299500,524.311340 399.092743,522.099854 
	C407.165833,520.704224 412.409119,515.424927 416.238739,508.771729 
	C422.107269,498.576324 420.280487,487.609253 417.544830,477.156586 
	C412.888367,459.365021 412.134460,441.984406 419.752655,424.869690 
	C421.262207,421.478424 420.388275,419.849182 417.113647,418.332092 
	C410.160980,415.110962 403.534088,411.387024 398.320068,405.455353 
	C388.605499,394.403717 385.334198,381.348694 385.647400,367.047333 
	C385.730896,363.233337 386.169250,359.413025 390.388672,358.034729 
	C394.700592,356.626221 397.096069,359.517670 399.258820,362.766541 
	C402.198822,367.183014 404.849426,371.836060 409.582977,374.795258 
	C418.783875,380.547272 428.696503,383.841339 439.513428,385.096344 
	C444.975647,385.730072 448.508514,383.934387 452.196991,380.250153 
	C460.202057,372.254242 469.571838,366.140686 480.759766,363.653595 
	C500.233276,359.324615 519.104370,362.096954 537.623230,368.982544 
	C552.619690,374.558472 565.724365,383.396942 578.934631,392.099274 
	C581.759155,393.959961 584.731628,395.462677 588.160645,395.624054 
	C606.694580,396.496124 623.473022,393.294312 634.122864,375.800110 
	C635.747986,373.130402 637.969360,371.117126 641.526855,371.905182 
	C644.955505,372.664764 646.348328,375.339447 647.137085,378.309204 
	C648.627014,383.918579 648.436768,389.656616 646.756470,395.115662 
	C639.487061,418.731354 619.791565,432.674896 595.997864,437.036133 
	C591.513977,437.857941 587.955933,435.504547 585.054810,432.204041 
	C579.205627,425.549805 577.380005,417.682983 577.703735,409.007538 
	C577.994873,401.204956 574.809448,397.679230 566.572327,396.100555 
	C565.708313,398.753937 564.955078,401.479767 563.941956,404.105255 
	C560.037537,414.223450 552.387512,419.183014 542.053467,416.941589 
	C532.408203,414.849579 524.734680,417.654999 517.615906,423.682831 
	C513.805359,426.909424 510.112549,430.322449 505.616028,432.621582 
	C498.439423,436.291077 491.603882,434.749390 485.258362,430.689392 
	C479.467896,426.984467 477.816467,421.329468 478.530365,414.614655 
	C479.069031,409.548462 480.806061,404.941437 482.580292,400.259003 
	C484.778687,394.457184 482.441528,387.406281 477.452759,383.789001 
	C472.579346,380.255341 465.518433,380.220825 460.801117,384.461182 
	C446.139923,397.640137 434.084717,412.783173 426.582031,432.115845 
M555.413513,624.896484 
	C548.446350,631.324890 541.886169,638.279053 534.417908,644.060120 
	C522.819946,653.038025 509.780334,656.249207 495.461334,650.729919 
	C493.345825,649.914551 491.358276,648.451477 488.892120,649.027283 
	C485.740204,660.399231 493.185211,669.808533 504.556366,669.210815 
	C512.810059,668.777039 520.934937,669.881653 528.273499,673.862366 
	C531.685730,675.713318 534.286804,675.483032 537.475891,673.600342 
	C548.401489,667.150391 557.036865,658.019836 565.536438,648.957581 
	C588.142700,624.854980 604.429932,597.135254 611.178406,564.396118 
	C613.656433,552.374573 617.142395,540.495178 615.891846,527.944275 
	C615.127441,520.272217 611.470032,514.083923 606.894775,507.803986 
	C600.404358,551.525513 587.637451,592.120056 555.413513,624.896484 
M628.353271,394.942169 
	C626.215942,396.227051 624.126404,397.600861 621.932922,398.781372 
	C612.571228,403.819733 602.264648,404.518738 591.960632,405.182587 
	C589.650330,405.331482 586.832703,404.960541 586.494080,408.151886 
	C585.924072,413.523499 586.601990,418.801422 589.437012,423.544647 
	C590.950684,426.077240 593.314819,426.945160 596.290710,426.483093 
	C609.282776,424.466064 620.515198,418.947174 628.760132,408.664032 
	C633.536377,402.707031 637.944641,396.137909 637.820984,387.306915 
	C634.542114,389.972870 631.743347,392.248505 628.353271,394.942169 
M414.516479,407.028107 
	C417.326355,408.469208 420.114410,409.955322 422.956604,411.329620 
	C424.125610,411.894928 425.679932,412.748322 426.636688,411.450378 
	C430.600281,406.073181 434.379456,400.560059 438.680847,394.451447 
	C421.329437,392.795166 406.645752,387.602570 396.092377,373.762756 
	C394.946106,376.037628 395.519653,377.634827 395.699310,379.246582 
	C397.066498,391.512207 404.703644,399.597076 414.516479,407.028107 
M502.148010,719.234863 
	C505.128082,717.737427 505.780151,713.696228 509.387878,712.458679 
	C509.990021,713.389648 510.595062,714.151611 511.011414,715.005554 
	C511.842316,716.709778 512.090820,719.467102 514.909851,718.214783 
	C517.889099,716.891235 515.238220,714.839539 515.013916,713.130737 
	C514.804321,711.534607 513.496826,710.140198 514.152893,708.118469 
	C514.557922,707.883057 515.075134,707.449646 515.669861,707.261169 
	C517.613403,706.645264 519.137878,705.609619 518.514771,703.352844 
	C517.849792,700.944336 515.802673,702.061707 514.309143,702.189087 
	C511.172638,702.456726 508.048737,702.885132 504.925934,703.295654 
	C502.888672,703.563416 499.776642,702.837036 499.547363,705.580261 
	C499.254242,709.087524 502.850189,707.033630 504.474609,707.993164 
	C504.731384,708.144836 504.895264,708.453857 505.350220,708.973572 
	C503.579987,711.419006 501.748627,713.919373 499.949890,716.442932 
	C498.492249,718.488037 499.078949,719.487915 502.148010,719.234863 
M539.308899,717.941833 
	C541.603943,719.148193 543.839478,720.117493 545.441528,715.820618 
	C536.972778,715.358887 535.525024,708.142456 532.838684,700.785583 
	C529.370789,707.684143 526.833008,712.732483 524.068604,718.231567 
	C529.231628,719.373108 529.115112,713.834106 532.461487,713.151489 
	C534.457703,714.574341 536.584595,716.090332 539.308899,717.941833 
M483.068604,705.692810 
	C480.758392,707.576294 476.533936,706.945801 475.596985,711.076416 
	C479.472717,712.485291 482.069366,707.939392 485.990814,709.508728 
	C485.937317,712.536804 484.542084,714.977722 483.420502,717.512451 
	C482.908356,718.669983 481.856049,719.897766 482.921844,721.196106 
	C483.688721,722.130310 484.907806,722.517090 486.080170,722.206909 
	C487.713074,721.774902 487.548889,720.225647 487.789795,718.950012 
	C488.770905,713.754639 489.312622,708.433716 492.281433,703.815125 
	C492.755157,703.078247 492.600861,702.221802 491.427246,701.493530 
	C488.983368,702.709839 486.351624,704.019714 483.068604,705.692810 
z"/>
<path fill="#FFFFFF" opacity="1.000000" stroke="none" 
	d="
M462.600586,467.984589 
	C463.631989,471.660095 463.673767,474.921722 462.062225,478.018707 
	C459.493134,482.955872 454.429749,485.238556 449.126221,483.930054 
	C444.141052,482.700104 440.689240,477.971252 440.732208,472.430664 
	C440.777283,466.620270 444.496490,461.988953 450.202362,460.638153 
	C455.172150,459.461609 459.281342,461.805450 462.600586,467.984589 
z"/>
<path fill="#FFFFFF" opacity="1.000000" stroke="none" 
	d="
M464.195251,553.550659 
	C470.014648,556.451660 472.537354,561.101929 471.587952,566.608032 
	C470.742371,571.511780 467.363617,574.837280 462.316254,575.733521 
	C456.260559,576.808838 451.781250,573.999695 450.169312,568.115784 
	C448.643799,562.547485 451.801575,555.886414 456.977936,554.126770 
	C459.156372,553.386169 461.443848,552.670715 464.195251,553.550659 
z"/>
<path fill="#FFFFFF" opacity="1.000000" stroke="none" 
	d="
M391.042664,565.705139 
	C391.572723,560.386292 392.903320,555.786316 397.824646,553.474304 
	C403.108459,550.991943 408.804993,553.132019 411.254761,558.242310 
	C413.860291,563.677429 411.707886,570.573792 406.553406,573.305664 
	C401.354736,576.060974 395.119263,574.354614 392.316528,569.338806 
	C391.760254,568.343262 391.500214,567.182251 391.042664,565.705139 
z"/>
<path fill="#FFFFFF" opacity="1.000000" stroke="none" 
	d="
M559.187866,487.290192 
	C552.267700,491.097595 545.854675,489.930267 542.842957,484.612854 
	C540.104980,479.778778 542.066040,473.259369 547.258240,469.934448 
	C551.497803,467.219604 556.381958,467.747589 559.897888,471.300842 
	C563.934692,475.380463 564.471375,480.247528 561.348145,484.729065 
	C560.782959,485.540070 560.110107,486.276093 559.187866,487.290192 
z"/>
</svg>